<svg xmlns="http://www.w3.org/2000/svg" width="401.988" height="104.988"><path d="M205.853 28.784c2.238 0 4.066-4.648 4.163-10.472h.007c-1.344.118-2.736.187-4.17.187-1.42 0-2.818-.07-4.155-.188.11 5.824 1.918 10.472 4.155 10.472m0-14.92c1.344 0 2.625-.047 3.865-.165h-.007c-.608-4.018-2.104-6.857-3.857-6.857-1.738 0-3.234 2.84-3.857 6.856 1.24.117 2.528.165 3.857.165m1.8 20.55c12.468-.638 22.29-7.98 22.29-16.927 0-3.04-1.13-5.894-3.118-8.374l-.028-.04c-.145 4.134-6.01 7.63-14.128 8.9.005.276.005.546.005.823 0 7.5-2.16 13.803-5.07 15.63l.05-.013zm-1.8-31.79c2.972 0 5.493 4.502 6.435 10.776 5.776-.906 9.82-2.97 9.82-5.394 0-3.24-7.272-5.86-16.255-5.86-8.968 0-16.247 2.62-16.247 5.86 0 2.424 4.044 4.488 9.82 5.395.942-6.273 3.47-10.775 6.427-10.775m-27.834 15.52C178.02 8.126 190.484 0 205.852 0c15.383 0 27.842 8.124 27.842 18.146 0 10.007-12.46 18.13-27.842 18.13-15.368 0-27.834-8.123-27.834-18.13m26.095 16.282c-2.93-1.828-5.07-8.13-5.07-15.63 0-.278.007-.548.007-.825-8.117-1.268-13.976-4.765-14.128-8.9l-.028.04c-1.995 2.48-3.124 5.334-3.124 8.375 0 8.948 9.835 16.29 22.288 16.926l.055.014zM333.94 26.917c4.274 0 7.737-3.92 7.737-8.775s-3.463-8.782-7.736-8.782c-4.28 0-7.742 3.927-7.742 8.782s3.463 8.775 7.743 8.775m-13.865-8.775c0-7.66 6.206-13.873 13.866-13.873 7.654 0 13.86 6.212 13.86 13.872 0 7.653-6.206 13.858-13.86 13.858-7.66 0-13.865-6.205-13.865-13.858M363.527 10.042v21.33h-5.845v-21.33h.02-8.165V5.235h22.135v4.807H363.527zM384.092 21.08h3.67l-3.65-9.57h-.048l-3.65 9.57h3.678zm-5.347 4.412l-.014.007-2.243 5.872h-6.815l10.784-26.138h7.266l10.79 26.138h-6.822l-2.244-5.873-.014-.008H378.745zM255.866 10.042v21.33h-5.832v-21.33h.014-8.166V5.235h22.142v4.807H255.866zM279.376 26.917c4.266 0 7.736-3.92 7.736-8.775s-3.47-8.782-7.736-8.782c-4.28 0-7.743 3.927-7.743 8.782s3.463 8.775 7.743 8.775m-13.86-8.775c0-7.66 6.207-13.873 13.86-13.873s13.858 6.212 13.858 13.872c0 7.653-6.205 13.858-13.858 13.858-7.653 0-13.86-6.205-13.86-13.858M306.656 31.374h2.958v-9.932l10.188-16.206h-6.808l-6.338 10.984-6.337-10.984h-6.81l10.182 16.206v9.932h2.964z" fill="#e2101e" fill-rule="evenodd"/><path d="M21.71 21.776l5.506 1.607c-.845 2.88-2.25 5.035-4.224 6.434-1.974 1.4-4.475 2.1-7.515 2.1-3.754 0-6.836-1.193-9.26-3.59-2.41-2.388-3.615-5.65-3.615-9.806 0-4.39 1.205-7.79 3.636-10.215 2.424-2.43 5.617-3.65 9.578-3.65 3.456 0 6.26.95 8.43 2.854 1.267 1.128 2.243 2.742 2.873 4.847l-5.597 1.274c-.34-1.37-1.04-2.457-2.112-3.24-1.06-.803-2.354-1.19-3.878-1.19-2.098 0-3.81.698-5.11 2.097-1.317 1.4-1.975 3.692-1.975 6.83 0 3.33.65 5.713 1.94 7.126 1.295 1.42 2.97 2.133 5.042 2.133 1.515 0 2.817-.45 3.92-1.364 1.093-.9 1.89-2.32 2.36-4.246M32.055 31.482V5.15h20.868v4.426H37.755v5.86H51.85v4.438H37.754v7.162h15.7v4.446h-21.4zM58.31 31.482V5.15h5.514L75.44 22.797V5.15h5.25v26.332h-5.694l-11.42-17.315v17.315H58.31zM93.028 31.482V9.576h-8.29V5.15h22.287v4.426h-8.29v21.906h-5.707zM116.49 16.312h4.198c2.73 0 4.426-.11 5.104-.333.665-.202 1.2-.59 1.586-1.11.38-.532.575-1.204.575-1.994 0-.9-.25-1.613-.755-2.16-.505-.554-1.22-.9-2.133-1.046-.464-.056-1.842-.097-4.14-.097h-4.434v6.74zm-5.7 15.167V5.153h11.955c3.006 0 5.194.23 6.552.7 1.357.478 2.465 1.323 3.276 2.52.817 1.227 1.24 2.605 1.24 4.163 0 1.974-.624 3.615-1.857 4.904-1.226 1.296-3.06 2.106-5.506 2.438 1.22.672 2.217 1.4 3.02 2.203.79.804 1.856 2.23 3.193 4.274l3.435 5.125h-6.732l-4.086-5.777c-1.475-2.022-2.487-3.29-3.027-3.816-.54-.526-1.108-.887-1.717-1.087-.61-.194-1.566-.29-2.888-.29h-1.157v10.97h-5.7zM143.896 18.293c0 3.006.74 5.278 2.216 6.815 1.483 1.552 3.366 2.32 5.652 2.32 2.272 0 4.142-.768 5.603-2.306 1.46-1.53 2.188-3.816 2.188-6.905 0-3.033-.713-5.284-2.126-6.78-1.427-1.496-3.318-2.237-5.666-2.237-2.37 0-4.26.755-5.707 2.257-1.44 1.51-2.16 3.796-2.16 6.836m-5.846.173c0-2.68.423-4.938 1.29-6.752.643-1.358 1.516-2.57 2.624-3.63 1.108-1.08 2.32-1.862 3.643-2.382 1.752-.693 3.788-1.046 6.08-1.046 4.156 0 7.474 1.205 9.974 3.616 2.494 2.417 3.748 5.776 3.748 10.077 0 4.258-1.24 7.59-3.712 10.006-2.48 2.404-5.79 3.616-9.932 3.616-4.19 0-7.535-1.205-10.008-3.595-2.472-2.396-3.705-5.7-3.705-9.91" fill="#e2101e"/><path d="M35.928 82.75l-7.335-17.967-6.94 17.966H35.93zm19.163 19.336H43.817l-4.536-11.11H18.488l-4.294 11.11H2.954l19.98-48.647H34.15l20.943 48.646z"/><path d="M35.928 82.75l-7.335-17.967-6.94 17.966H35.93zm19.163 19.336H43.817l-4.536-11.11H18.488l-4.294 11.11H2.954l19.98-48.647H34.15l20.943 48.646z" fill="none" stroke="#000" stroke-width="3.8715333800000002"/><path d="M60.053 53.436h10.485v26.478c0 4.21.132 6.932.395 8.172.444 2.002 1.517 3.6 3.2 4.82 1.69 1.212 3.996 1.815 6.933 1.815 2.978 0 5.222-.567 6.732-1.71 1.516-1.156 2.424-2.562 2.728-4.224.312-1.67.478-4.433.478-8.305V53.437h10.465v25.577c0 5.832-.292 9.966-.853 12.377-.575 2.41-1.613 4.453-3.13 6.108-1.53 1.676-3.567 2.992-6.123 3.976-2.54.983-5.88 1.475-9.973 1.475-4.965 0-8.732-.54-11.288-1.6-2.562-1.075-4.585-2.474-6.074-4.198-1.49-1.718-2.472-3.505-2.943-5.395-.686-2.778-1.032-6.912-1.032-12.35v-25.97z"/><path d="M60.053 53.436h10.485v26.478c0 4.21.132 6.932.395 8.172.444 2.002 1.517 3.6 3.2 4.82 1.69 1.212 3.996 1.815 6.933 1.815 2.978 0 5.222-.567 6.732-1.71 1.516-1.156 2.424-2.562 2.728-4.224.312-1.67.478-4.433.478-8.305V53.437h10.465v25.577c0 5.832-.292 9.966-.853 12.377-.575 2.41-1.613 4.453-3.13 6.108-1.53 1.676-3.567 2.992-6.123 3.976-2.54.983-5.88 1.475-9.973 1.475-4.965 0-8.732-.54-11.288-1.6-2.562-1.075-4.585-2.474-6.074-4.198-1.49-1.718-2.472-3.505-2.943-5.395-.686-2.778-1.032-6.912-1.032-12.35v-25.97z" fill="none" stroke="#000" stroke-width="3.8715333800000002"/><path d="M123.528 102.086v-40.42H108.18V53.44h41.16v8.227H134v40.42h-10.472z"/><path d="M123.528 102.086v-40.42H108.18V53.44h41.16v8.227H134v40.42h-10.472z" fill="none" stroke="#000" stroke-width="3.8715333800000002"/><path d="M162.74 77.717c0 5.534 1.37 9.745 4.093 12.598 2.728 2.847 6.17 4.28 10.374 4.28 4.184 0 7.626-1.426 10.32-4.26 2.68-2.818 4.017-7.084 4.017-12.742 0-5.596-1.302-9.78-3.913-12.536-2.63-2.756-6.087-4.128-10.423-4.128-4.342 0-7.833 1.384-10.485 4.175-2.653 2.792-3.983 6.996-3.983 12.612m-10.846.34c0-4.966.79-9.142 2.382-12.494 1.184-2.494 2.79-4.717 4.84-6.69 2.058-1.968 4.302-3.436 6.74-4.385 3.24-1.274 6.988-1.932 11.213-1.932 7.68 0 13.816 2.237 18.422 6.69 4.605 4.454 6.912 10.645 6.912 18.582 0 7.86-2.286 14.018-6.864 18.47-4.557 4.434-10.673 6.657-18.32 6.657-7.742 0-13.906-2.216-18.47-6.635-4.57-4.418-6.856-10.506-6.856-18.263"/><path d="M162.74 77.717c0 5.534 1.37 9.745 4.093 12.598 2.728 2.847 6.17 4.28 10.374 4.28 4.184 0 7.626-1.426 10.32-4.26 2.68-2.818 4.017-7.084 4.017-12.742 0-5.596-1.302-9.78-3.913-12.536-2.63-2.756-6.087-4.128-10.423-4.128-4.342 0-7.833 1.384-10.485 4.175-2.653 2.792-3.983 6.996-3.983 12.612zm-10.846.34c0-4.966.79-9.142 2.382-12.494 1.184-2.494 2.79-4.717 4.84-6.69 2.058-1.968 4.302-3.436 6.74-4.385 3.24-1.274 6.988-1.932 11.213-1.932 7.68 0 13.816 2.237 18.422 6.69 4.605 4.454 6.912 10.645 6.912 18.582 0 7.86-2.286 14.018-6.864 18.47-4.557 4.434-10.673 6.657-18.32 6.657-7.742 0-13.906-2.216-18.47-6.635-4.57-4.418-6.856-10.506-6.856-18.263z" fill="none" stroke="#000" stroke-width="3.8715333800000002"/><path d="M229.377 102.086V53.44h10.188l21.373 32.57V53.44h9.73v48.646h-10.52l-21.04-31.88v31.88h-9.73z"/><path d="M229.377 102.086V53.44h10.188l21.373 32.57V53.44h9.73v48.646h-10.52l-21.04-31.88v31.88h-9.73z" fill="none" stroke="#000" stroke-width="3.8715333800000002"/><path d="M280.745 53.434h10.478v48.647h-10.478V53.435z"/><path d="M280.745 53.434h10.48v48.647h-10.48V53.435z" fill="none" stroke="#000" stroke-width="3.8715333800000002"/><path d="M333.873 84.244l10.23 2.985c-1.566 5.318-4.163 9.28-7.8 11.856-3.642 2.584-8.26 3.865-13.85 3.865-6.926 0-12.605-2.208-17.066-6.634-4.453-4.42-6.676-10.458-6.676-18.125 0-8.11 2.238-14.41 6.72-18.9 4.487-4.48 10.367-6.73 17.667-6.73 6.385 0 11.566 1.744 15.54 5.228 2.377 2.07 4.157 5.007 5.34 8.88l-10.353 2.36c-.623-2.507-1.912-4.48-3.872-5.928-1.96-1.462-4.335-2.168-7.147-2.168-3.88 0-7.023 1.288-9.426 3.892-2.418 2.597-3.616 6.822-3.616 12.64 0 6.17 1.177 10.583 3.54 13.194 2.367 2.63 5.45 3.933 9.23 3.933 2.792 0 5.195-.823 7.217-2.492 2.01-1.67 3.45-4.273 4.323-7.854"/><path d="M333.873 84.244l10.23 2.985c-1.566 5.318-4.163 9.28-7.8 11.856-3.642 2.584-8.26 3.865-13.85 3.865-6.926 0-12.605-2.208-17.066-6.634-4.453-4.42-6.676-10.458-6.676-18.125 0-8.11 2.238-14.41 6.72-18.9 4.487-4.48 10.367-6.73 17.667-6.73 6.385 0 11.566 1.744 15.54 5.228 2.377 2.07 4.157 5.007 5.34 8.88l-10.353 2.36c-.623-2.507-1.912-4.48-3.872-5.928-1.96-1.462-4.335-2.168-7.147-2.168-3.88 0-7.023 1.288-9.426 3.892-2.418 2.597-3.616 6.822-3.616 12.64 0 6.17 1.177 10.583 3.54 13.194 2.367 2.63 5.45 3.933 9.23 3.933 2.792 0 5.195-.823 7.217-2.492 2.01-1.67 3.45-4.273 4.323-7.854z" fill="none" stroke="#000" stroke-width="3.8715333800000002"/><path d="M379.912 82.75l-7.335-17.967-6.926 17.966h14.262zm19.17 19.336h-11.268l-4.536-11.11h-20.806l-4.28 11.11h-11.24l19.974-48.647h11.22l20.936 48.646z"/><path d="M379.912 82.75l-7.335-17.967-6.926 17.966h14.262zm19.17 19.336h-11.268l-4.536-11.11h-20.806l-4.28 11.11h-11.24l19.974-48.647h11.22l20.936 48.646z" fill="none" stroke="#000" stroke-width="3.8715333800000002"/></svg>